<?xml version="1.0" standalone="no"?><!DOCTYPE svg PUBLIC "-//W3C//DTD SVG 1.1//EN" "http://www.w3.org/Graphics/SVG/1.1/DTD/svg11.dtd"><svg t="1578903685389" class="icon" viewBox="0 0 1024 1024" version="1.1" xmlns="http://www.w3.org/2000/svg" p-id="1319" xmlns:xlink="http://www.w3.org/1999/xlink" width="200" height="200"><defs><style type="text/css"></style></defs><path d="M652.117333 949.973333l-498.176-2.645333 2.645334-850.602667 745.813333 2.645334v597.930666c0 139.221333-112.725333 252.757333-250.282667 252.757334v-0.085334z m29.312-614.997333c16.896 0 28.416-11.52 28.416-28.416s-11.52-28.416-28.416-28.416H298.154667c-16.938667 0-28.458667 11.52-28.458667 28.373333a26.965333 26.965333 0 0 0 28.416 28.458667h383.317333z m-12.8 204.373333v0.085334a28.458667 28.458667 0 0 0 28.416-28.458667c0-16.896-11.52-28.458667-28.416-28.458667H303.274667c-16.938667 0-28.458667 11.562667-28.458667 28.458667a26.965333 26.965333 0 0 0 28.416 28.373333h365.397333z m-112.426666 178.858667a28.458667 28.458667 0 0 0 28.458666-28.330667c0-16.938667-11.562667-28.416-28.458666-28.416H303.274667c-16.938667 0-28.458667 11.477333-28.458667 28.373334a26.965333 26.965333 0 0 0 28.416 28.373333h252.970667z" fill="#E99F48" p-id="1320"></path></svg>