<?xml version="1.0" standalone="no"?><!DOCTYPE svg PUBLIC "-//W3C//DTD SVG 1.1//EN" "http://www.w3.org/Graphics/SVG/1.1/DTD/svg11.dtd"><svg t="1578906567631" class="icon" viewBox="0 0 1024 1024" version="1.1" xmlns="http://www.w3.org/2000/svg" p-id="1996" xmlns:xlink="http://www.w3.org/1999/xlink" width="200" height="200"><defs><style type="text/css"></style></defs><path d="M462.05 534.05c45 0 87.3-12.15 123.3-33.75l6.75-4.05c66.15-41.85 109.35-115.2 109.35-198 0-130.5-107.55-235.8-239.85-235.8C329.3 62 222.2 167.75 222.2 297.8c0 130.5 107.1 236.25 239.85 236.25zM478.7 842.3c-14.4-34.2-22.05-70.65-22.05-108s7.2-73.8 22.05-108c8.55-20.7 19.8-40.05 32.85-57.6h-139.5C201.05 568.7 62 705.5 62 873.8v19.8C62 962 201.05 962 372.05 962h203.4c-13.05-9.45-25.65-19.8-37.35-31.05-25.2-25.65-45.45-55.35-59.4-88.65z" fill="#1296db" p-id="1997"></path><path d="M620.9 752.75c-4.5 3.6-9.45 9-10.8 15.75-1.8 9.45-0.45 21.15 8.55 30.15 10.8 11.25 27.45 14.4 34.65 14.85 19.35 1.35 40.5-8.1 55.8-19.35 6.3-4.5 16.65-13.05 26.55-26.55-22.5-11.7-50.85-24.3-80.55-23.4-15.3 1.35-26.1 4.5-34.2 8.55z m285.75 51.75c9.9-23.4 15.3-49.05 15.3-76.05 0-107.1-87.3-194.4-194.4-194.4-107.1 0-194.4 87.3-194.4 194.4 0 107.1 87.3 194.4 194.4 194.4 64.8 0 121.95-31.95 157.5-80.55-33.3-16.65-88.65-44.1-122.4-60.3-16.2 18.45-40.05 36.9-67.05 45-17.1 4.95-32.4 6.75-48.15 3.6-15.75-3.15-27.45-10.8-34.2-18-3.6-3.6-7.65-8.55-10.35-14.4 0 0.45 0.45 0.9 0.45 1.35 0 0-1.8-2.7-2.7-7.2l-1.35-6.75v-4.95c0-3.15 0-5.85 0.45-9 1.8-7.65 4.95-16.65 13.5-24.75 18.45-18.45 43.65-19.35 56.7-19.35 19.35 0 52.2 8.55 80.55 18.45 7.65-16.65 12.6-34.2 15.75-45.9h-116.55V687.5h59.85v-25.2h-72.45v-12.6h72.45V624.5c0-3.6 0.9-6.3 6.3-6.3h28.35v31.5H822.5v12.6h-78.75v25.2h63s-6.3 35.1-26.1 70.2c43.65 14.4 105.75 38.7 126 46.8z" fill="#1296db" p-id="1998"></path></svg>