<?xml version="1.0" standalone="no"?><!DOCTYPE svg PUBLIC "-//W3C//DTD SVG 1.1//EN" "http://www.w3.org/Graphics/SVG/1.1/DTD/svg11.dtd"><svg t="1578906563228" class="icon" viewBox="0 0 1184 1024" version="1.1" xmlns="http://www.w3.org/2000/svg" p-id="1862" xmlns:xlink="http://www.w3.org/1999/xlink" width="231.25" height="200"><defs><style type="text/css"></style></defs><path d="M945.85800781 603.41152344c-4.66875-0.421875-9.16787109-1.125-13.63974609-1.884375a53.27490234 53.27490234 0 0 1-2.953125-0.421875c-2.109375-0.36474609-4.10537109-0.92724609-6.15849609-1.4334961-8.74511719-1.884375-17.29511719-4.246875-25.47949219-7.340625v117.10195313H254.83554688V592.33115234c-8.23974609 3.121875-16.70449219 5.540625-25.53486329 7.48125-2.053125 0.365625-4.04912109 0.928125-6.10224609 1.3491211-0.95625 0.16875-1.9125 0.28125-2.953125 0.45-4.5 0.675-9.02636719 1.35-13.63886719 1.828125-5.259375 0.421875-10.63037109 0.759375-16.05761718 0.759375-10.96875 0-21.71074219-1.06875-32.11611329-2.925v314.04287109c0 25.76074219 21.59736328 46.68310547 48.22998047 46.68310547h739.22431641c26.57548828 0 48.17285156-20.89511719 48.17285156-46.68310547V601.24589844c-10.40449219 1.884375-21.14736328 2.925-32.11523437 2.925-5.34375 0-10.77099609-0.309375-16.02949219-0.759375zM222.69042969 158.45996094h707.08095703c26.63261719 0 48.22998047-21.59824219 48.22998047-48.22998047S956.40400391 62 929.77138672 62h-707.08007813c-26.63173828 0-48.22998047 21.59824219-48.22998047 48.22998047 0.028125 26.63173828 21.62636719 48.22998047 48.22998047 48.22998047zM1000.13398437 206.66181641h-847.74902343L62 431.66796875c0 70.95234375 57.59472656 128.54707031 128.54707031 128.54707031s128.54794922-57.59472656 128.54794922-128.54707031c0 70.95234375 57.59472656 128.54707031 128.54707031 128.54707031s128.54707031-57.59472656 128.54707032-128.54707031c0 70.95234375 57.59472656 128.54707031 128.54707031 128.54707031S833.28417969 502.62119141 833.28417969 431.66796875c0 70.95234375 57.59472656 128.54707031 128.54707031 128.54707031s128.54707031-57.59472656 128.54707031-128.54707031L1000.02148438 206.66181641z" fill="#1296db" p-id="1863"></path></svg>