<?xml version="1.0" standalone="no"?><!DOCTYPE svg PUBLIC "-//W3C//DTD SVG 1.1//EN" "http://www.w3.org/Graphics/SVG/1.1/DTD/svg11.dtd"><svg t="1578906577898" class="icon" viewBox="0 0 1024 1024" version="1.1" xmlns="http://www.w3.org/2000/svg" p-id="1290" xmlns:xlink="http://www.w3.org/1999/xlink" width="200" height="200"><defs><style type="text/css"></style></defs><path d="M537.71428531 280.57142844c42.85714313 10.28571469 82.28571469-8.57142844 90.85714313-44.57142844S608 162.28571469 566.85714313 152c-42.85714313-10.28571469-82.28571469 8.57142844-90.85714313 44.57142844-8.57142844 34.28571469 20.57142844 72 61.71428531 84z m392.57142938 58.28571469c-8.57142844-25.71428531-18.85714313-49.71428531-30.85714313-72.00000001-34.28571469-65.14285688-82.28571469-118.28571469-138.85714312-159.42857156-10.28571469-6.85714313-29.14285687-18.85714313-29.14285688-18.85714312-104.57142844-58.28571469-157.71428531-46.28571469-156-1.71428531 0 32.57142844 29.14285687 41.14285687 54.85714313 53.14285687 87.42857156 42.85714313 133.71428531 109.71428531 109.71428531 162.85714312-22.28571469 49.71428531-102.85714313 66.85714312-186.85714312 36.00000001-85.71428531-32.57142844-198.85714312-109.71428531-214.28571375-22.28571469-13.71428531 73.71428531 94.28571469 75.42857156 205.71428531 195.42857156 48 51.42857156 60 140.57142844 32.57142844 212.57142844-60 108-234.85714312 82.28571469-312-5.14285688C174.28571469 616.57142844 186.28571469 512 191.42857156 486.28571469c10.28571469-53.14285687 30.85714312-96 46.28571375-121.71428625 15.42857156-29.14285687 24-48 24-70.28571375 0-37.71428531-25.71428531-61.71428531-60-63.42857157-41.14285687-1.71428531-72 24-89.14285687 63.42857157-42.85714313 92.57142844-56.57142844 200.57142844-34.28571375 306.85714218 0 1.71428531 0 3.42857156 1.71428531 5.14285782 1.71428531 10.28571469 5.14285687 20.57142844 6.85714312 30.85714218 0 0 3.42857156 17.14285687 13.71428532 39.42857157l10.28571468 25.71428625v1.71428531C208.57142844 923.42857156 446.85714312 1031.42857156 666.28571469 945.71428531c229.71428531-89.14285687 348-361.71428531 264-606.85714218z" fill="#1296db" p-id="1291"></path></svg>