<?xml version="1.0" standalone="no"?><!DOCTYPE svg PUBLIC "-//W3C//DTD SVG 1.1//EN" "http://www.w3.org/Graphics/SVG/1.1/DTD/svg11.dtd"><svg t="1578904573024" class="icon" viewBox="0 0 1024 1024" version="1.1" xmlns="http://www.w3.org/2000/svg" p-id="1393" xmlns:xlink="http://www.w3.org/1999/xlink" width="200" height="200"><defs><style type="text/css"></style></defs><path d="M892.73 668.2c-99.1 40.98-242.89 60.48-380.69 60.48-137.89 0-281.59-19.5-380.69-60.48-42.8 21.7-67.63 47.29-67.63 74.73 0 78.24 200.75 141.66 448.32 141.66s448.32-63.42 448.32-141.66c0-27.44-24.82-53.12-67.63-74.77v0.04z m0-216.47c-99.1 41.02-242.89 60.48-380.69 60.48-137.89 0-281.59-19.46-380.69-60.48-42.8 21.74-67.63 47.34-67.63 74.77 0 78.24 200.75 141.66 448.32 141.66s448.32-63.42 448.32-141.66c-0.01-27.48-24.83-53.03-67.63-74.77z m-380.69 0c247.57 0 448.32-69.24 448.32-154.66 0-85.37-200.75-154.52-448.32-154.52S63.72 211.79 63.72 297.12c0 85.27 200.75 154.61 448.32 154.61z" fill="#1296db" p-id="1394"></path></svg>