<?xml version="1.0" standalone="no"?><!DOCTYPE svg PUBLIC "-//W3C//DTD SVG 1.1//EN" "http://www.w3.org/Graphics/SVG/1.1/DTD/svg11.dtd"><svg t="1578904848940" class="icon" viewBox="0 0 1024 1024" version="1.1" xmlns="http://www.w3.org/2000/svg" p-id="1757" xmlns:xlink="http://www.w3.org/1999/xlink" width="200" height="200"><defs><style type="text/css"></style></defs><path d="M958.9561 536.439622c0-111.227244-87.976704-213.023698-190.801581-213.023698-46.084595 0-90.338495 30.166043-122.824373 60.226686-22.072715 20.295232-163.075099 112.50126-224.984101 115.012454-133.896546 5.4225-255.29136-59.493999-293.024753-191.176111 0 0-17.148565-33.164331-19.484773-87.811951-0.445138-22.074761-15.903202-20.97573-23.408129-1.184989-2.747577 7.04444-16.347317 26.451442-18.928095 69.798692-1.089821 17.698081-1.413186 37.994336-0.401136 60.331064 11.333116 286.74677 237.129722 518.759961 502.307244 506.483356 134.26289-6.187933 251.491825-80.870866 334.828858-180.975794 1.569752-1.778506 3.058662-3.608178 4.559852-5.475711C935.163207 633.144104 958.9561 586.79652 958.9561 536.439622zM371.182322 162.004721c88.344071-9.363252 166.616762 57.314357 174.663018 141.865032 2.101871 22.319331-0.295735 42.388413-7.417947 62.441121-66.12093 73.617671-174.385702 69.346391-174.385702 66.903759-83.940784-8.874111-116.773564-48.892547-136.6431-84.201727-0.626263-3.66139-1.176802-7.357572-1.551332-11.089569C217.878774 253.372661 282.752294 171.421184 371.182322 162.004721z" fill="#00a2ac" p-id="1758"></path></svg>