<?xml version="1.0" standalone="no"?><!DOCTYPE svg PUBLIC "-//W3C//DTD SVG 1.1//EN" "http://www.w3.org/Graphics/SVG/1.1/DTD/svg11.dtd"><svg t="1578904839469" class="icon" viewBox="0 0 1024 1024" version="1.1" xmlns="http://www.w3.org/2000/svg" p-id="1351" xmlns:xlink="http://www.w3.org/1999/xlink" width="200" height="200"><defs><style type="text/css"></style></defs><path d="M861.59375 169.8125h-69.9375c-25.78125-0.09375-50.71875 9.28125-70.03125 26.25L432.40625 450.59375c-12.375 10.875-28.78125 17.53125-46.78125 17.53125-14.34375 0-28.40625-4.3125-40.21875-12.46875-0.09375 0-0.09375 0.09375-0.09375 0.09375l158.71875 110.34375c11.8125 9 26.625 14.34375 42.75 14.34375 15.75 0 30.28125-5.0625 41.90625-13.6875h0.09375l111.9375-82.125c5.8125-4.3125 13.125-6.84375 20.90625-6.84375 13.3125-0.09375 25.59375 7.5 31.5 19.40625L639.40625 652.71875c-14.15625 17.4375-22.59375 39.5625-22.59375 63.65625v103.59375c0 18.9375 15.65625 34.21875 34.96875 34.21875h209.71875c1.5 0 3-0.09375 4.59375-0.1875 36.46875-2.34375 65.34375-31.96875 65.34375-68.25V238.25c0-37.78125-31.3125-68.4375-69.84375-68.4375z" fill="#00A2AC" p-id="1352"></path><path d="M233.65625 434.1875l0.09375-0.09375c4.5-14.71875 18.1875-24.84375 33.5625-24.75 7.21875 0 14.25 2.15625 20.25 6.28125l44.90625 30.9375c11.34375 7.21875 24.46875 11.0625 37.875 11.0625 16.875 0 33.1875-6 46.03125-16.875l120-105.9375-208.59375-146.25c-17.0625-11.8125-37.875-18.75-60.375-18.75H162.5c-38.625 0-69.9375 30.65625-69.9375 68.4375v547.5c0 36.28125 28.875 65.90625 65.4375 68.25 1.5 0.09375 3 0.1875 4.5 0.1875h244.6875c19.3125 0 34.875-15.1875 34.96875-34.125V717.3125c0-24-8.53125-47.15625-24.09375-65.4375L233.65625 434.1875z" fill="#00A2AC" p-id="1353"></path></svg>