<?xml version="1.0" standalone="no"?><!DOCTYPE svg PUBLIC "-//W3C//DTD SVG 1.1//EN" "http://www.w3.org/Graphics/SVG/1.1/DTD/svg11.dtd"><svg t="1578906352232" class="icon" viewBox="0 0 1024 1024" version="1.1" xmlns="http://www.w3.org/2000/svg" p-id="1290" xmlns:xlink="http://www.w3.org/1999/xlink" width="200" height="200"><defs><style type="text/css"></style></defs><path d="M512 62C264.5 62 62 264.5 62 512s202.5 450 450 450 450-202.5 450-450S759.5 62 512 62z m164.99999971 299.99999971l-78.75 78.75h33.75c18.74999971 0 33.75 15.00000029 33.75 33.75s-15.00000029 33.75-33.75 33.75h-86.24999971v45h86.24999971c18.74999971 0 33.75 15.00000029 33.75 33.75s-15.00000029 33.75-33.75 33.75h-86.24999971v97.50000058c0 18.74999971-15.00000029 33.75-33.75 33.75s-33.75-15.00000029-33.75-33.75v-97.50000058H392.00000029c-18.74999971 0-33.75-15.00000029-33.75-33.75s15.00000029-33.75 33.75-33.75h86.24999971V512H392.00000029c-18.74999971 0-33.75-15.00000029-33.75-33.75s15.00000029-33.75 33.75-33.75h33.75L347.00000029 361.99999971c-15.00000029-15.00000029-15.00000029-37.50000029 0-48.74999942 15.00000029-15.00000029 37.50000029-15.00000029 48.74999942 0L512 429.49999971l116.25000029-116.24999942c15.00000029-15.00000029 37.50000029-15.00000029 48.74999942 0 15.00000029 11.25 15.00000029 33.75 0 48.74999942z m0 0" fill="#1296db" p-id="1291"></path></svg>