<?xml version="1.0" standalone="no"?><!DOCTYPE svg PUBLIC "-//W3C//DTD SVG 1.1//EN" "http://www.w3.org/Graphics/SVG/1.1/DTD/svg11.dtd"><svg t="1578907596901" class="icon" viewBox="0 0 1360 1024" version="1.1" xmlns="http://www.w3.org/2000/svg" p-id="1424" xmlns:xlink="http://www.w3.org/1999/xlink" width="265.625" height="200"><defs><style type="text/css"></style></defs><path d="M1157.16666668 622.13688889c-116.50844445-32.768-213.90222222-91.02222222-258.50311112-112.86755556-58.25422222-25.48622222-91.02222222-6.37155555-223.00444445 25.48622222-132.89244445 29.12711111-191.14666667 32.768-191.14666665 32.768-19.11466667 32.768 6.37155555 87.38133333 48.24177777 100.12444445 45.51111111 12.74311111 207.53066667-3.64088889 249.40088889-6.37155555 19.11466667-3.64088889 22.75555555 22.75555555-3.6408889 48.24177777-25.48622222 29.12711111-91.02222222 48.24177778-141.99466666 64.62577778C565.52222223 796.89955555 465.39777778 764.13155555 465.39777778 764.13155555s-141.99466667-81.00977778-233.01688888-100.12444444c-91.02222222-22.75555555-83.74044445 58.25422222-83.74044444 58.25422222s171.12177778 116.50844445 223.00444444 145.63555556c54.61333333 29.12711111 135.62311111 106.496 207.53066665 100.12444444s333.14133333-74.63822222 388.66488891-68.26666666c25.48622222 3.64088889 64.62577778 12.74311111 100.12444443 22.75555555h3.6408889c3.64088889 3.64088889 6.37155555 3.64088889 10.01244444 3.64088889 12.74311111 0 19.11466667-6.37155555 25.48622223-16.384 3.64088889-3.64088889 3.64088889-6.37155555 3.64088887-6.37155556 29.12711111-58.25422222 54.61333333-174.76266667 68.26666667-233.01688888 10.92266667-22.75555555-1.82044445-45.51111111-21.84533332-48.24177778z m-863.80088889-436.90666667h436.90666667c35.49866667 0 64.62577778-29.12711111 64.62577777-64.62577777s-29.12711111-64.62577778-64.62577777-64.62577778h-436.90666667c-35.49866667 0-64.62577778 29.12711111-64.62577779 64.62577778s29.12711111 64.62577778 64.62577779 64.62577777z m0 233.01688889h436.90666667c35.49866667 0 64.62577778-29.12711111 64.62577777-64.62577778s-29.12711111-64.62577778-64.62577777-64.62577778h-436.90666667c-35.49866667 0-64.62577778 29.12711111-64.62577779 64.62577778s29.12711111 64.62577778 64.62577779 64.62577778z" fill="#1296db" p-id="1425"></path></svg>