<?xml version="1.0" standalone="no"?><!DOCTYPE svg PUBLIC "-//W3C//DTD SVG 1.1//EN" "http://www.w3.org/Graphics/SVG/1.1/DTD/svg11.dtd"><svg t="1578907593744" class="icon" viewBox="0 0 1024 1024" version="1.1" xmlns="http://www.w3.org/2000/svg" p-id="1290" xmlns:xlink="http://www.w3.org/1999/xlink" width="200" height="200"><defs><style type="text/css"></style></defs><path d="M460.1677025 382.18831063q-1.67801813 11.59806937 9.8706975 11.54871656a30.99399001 30.99399001 0 0 0 3.60280406 0h157.33891782c9.08104125 1.23383719 12.93061406-1.87543219 11.64742312-9.42651656v-43.57912875a10.16681813 10.16681813 0 0 0-11.64742313-11.3513025H473.73991156q-15.496995 0-13.57220906 11.3513025zM405.87886625 315.11692156q-1.82607937-40.02567844 43.13494781-40.02567843h202.99089375q48.95865937-1.87543219 45.05973375 41.95046437v85.82571469q3.89892562 43.87525031-41.11145531 40.02567844H573.68072281v24.67674282h123.38371875q24.33126938 1.92478594 24.33126938 27.14441811-1.87543219 25.21963219-26.20670157 27.14441813h-108.5776725q44.91167344 60.11254781 121.70569968 120.22509562 16.82953875 17.47113469 5.62629751 32.96812875-20.58040406 25.21963219-52.41340312 0-35.58386437-23.2454925-87.99726844-85.28282531v94.95610969q-1.87543219 25.21963219-26.20670156 29.06920406-26.20670156 0-28.08213375-25.21963219v-100.77982125q-43.03624125 62.03733375-86.12183531 89.18175188-22.45583719 17.47113469-44.91167438 0-16.82953875-19.39592062 5.62629844-38.79184125a543.52995562 543.52995562 0 0 0 106.85029968-116.32617H414.56508031q-28.08213469-1.92478594-29.95756687-27.14441813 1.87543219-25.21963219 29.95756687-27.14441811H519.3918875v-24.67674282H455.23235375q-54.83172469 5.72500406-49.3534875-40.02567844z m-74.37570562-37.06446937q5.33017687-19.44527438 26.94700406-19.44527344h4.04698594q25.21963219 3.84957188 23.29484624 26.99635782-11.64742313 59.76707344-19.39592062 88.83627656v312.21016124q-1.92478594 25.07157188-27.14441812 26.99635688-25.21963219 0-27.14441719-25.07157094v-202.34929781q-34.89291563 17.37242719-42.64141313-17.32307438 0-15.44764125 13.57220906-38.54507343 31.04334375-59.76707344 48.46512376-152.3048625z m-14.80604532 492.54780375s182.95337719 131.28027657 195.29174907 131.28027656 195.29174906-131.37898313 195.29174906-131.37898313a370.64469001 370.64469001 0 0 0 147.71498719-296.12092406V273.16645719a58.03970063 58.03970063 0 0 0-39.48279-55.37461219L535.57983125 125.79694438a75.16536094 75.16536094 0 0 0-47.2312875-1e-8L208.46491719 217.791845a58.03970063 58.03970063 0 0 0-39.48279 55.37461219V474.72609969a370.64469001 370.64469001 0 0 0 147.71498812 295.92351zM470.58128844 38.68803875a131.52704345 131.52704345 0 0 1 82.81515187 0l307.02804469 100.97723531A115.43780719 115.43780719 0 0 1 938.89652938 249.82225813v221.25168375a459.53032031 459.53032031 0 0 1-183.69367969 367.33800562l-8.78492063 6.2678925-23.04807843 16.43471156c-23.93644125 16.9776-48.07029657 34.00455281-70.87160813 49.89637594l-5.6262975 3.89892562c-97.76925844 67.81169156-112.13112281 77.09014688-134.98178813 77.09014688s-35.83063219-8.53815375-134.98178718-77.23820719l-5.37953063-3.75086531c-22.85066438-15.89182311-47.03387344-32.86942219-70.97031468-49.84702219L277.55979969 844.67984l-9.52522312-6.95884125A458.98743187 458.98743187 0 0 1 85.08119938 471.07394187V249.82225813A115.43780719 115.43780719 0 0 1 163.6025975 139.61592031z" fill="#1296db" p-id="1291"></path></svg>